<svg fill="#000000" xmlns="http://www.w3.org/2000/svg" viewBox="0 0 100 100" width="100px" height="100px"><path d="M 71.644531 11.029297 C 70.955838 11.014193 70.254133 11.100725 69.558594 11.298828 L 16.068359 26.533203 C 12.35766 27.589754 10.184249 31.457139 11.25 35.140625 A 1.0001 1.0001 0 0 0 11.251953 35.144531 L 12.015625 37.753906 L 19.320312 83.126953 C 19.928767 86.911721 23.533929 89.499554 27.335938 88.896484 L 82.105469 80.214844 C 85.907563 79.612923 88.523706 76.0357 87.914062 72.251953 L 80.603516 26.841797 A 1.0001 1.0001 0 0 0 79.628906 26 A 1.0001 1.0001 0 0 0 79.460938 26.011719 L 29.253906 33.966797 L 78.335938 19.990234 A 1.0001 1.0001 0 0 0 79.021484 18.746094 L 78.232422 16.052734 C 77.432328 13.290779 75.039138 11.40376 72.328125 11.078125 C 72.102135 11.05098 71.874096 11.034331 71.644531 11.029297 z M 71.111328 13.041016 C 71.445105 13.014352 71.775636 13.020571 72.099609 13.058594 C 74.043452 13.28673 75.740787 14.634726 76.3125 16.611328 A 1.0001 1.0001 0 0 0 76.3125 16.613281 L 76.683594 17.884766 L 67.636719 13.925781 L 70.105469 13.222656 C 70.440526 13.127225 70.777551 13.067679 71.111328 13.041016 z M 66.125 14.355469 L 75.861328 18.615234 L 68.089844 20.828125 L 58.361328 16.566406 L 66.125 14.355469 z M 56.847656 16.998047 L 66.582031 21.257812 L 58.802734 23.472656 L 49.070312 19.212891 L 56.847656 16.998047 z M 47.560547 19.642578 L 57.292969 23.902344 L 49.519531 26.117188 L 39.787109 21.855469 L 47.560547 19.642578 z M 38.277344 22.287109 L 48.011719 26.546875 L 40.230469 28.761719 L 30.505859 24.5 L 38.277344 22.287109 z M 28.996094 24.929688 L 38.720703 29.193359 L 30.955078 31.404297 L 21.216797 27.144531 L 28.996094 24.929688 z M 19.705078 27.574219 L 29.443359 31.835938 L 21.662109 34.050781 L 13.761719 30.587891 C 14.394958 29.594561 15.373172 28.808732 16.615234 28.455078 L 19.705078 27.574219 z M 78.058594 28.259766 L 72.089844 36.287109 L 63.972656 37.574219 L 69.931641 29.548828 L 78.058594 28.259766 z M 78.896484 28.8125 L 85.939453 72.570312 C 86.375811 75.278566 84.534875 77.806155 81.792969 78.240234 L 27.023438 86.919922 A 1.0001 1.0001 0 0 0 27.021484 86.919922 C 24.279493 87.354853 21.730468 85.517826 21.294922 82.808594 L 15.410156 46.253906 A 0.50005 0.50005 0 0 0 15.582031 46.107422 L 22.277344 37.099609 L 30.394531 35.8125 L 24.308594 44.001953 A 0.50005 0.50005 0 0 0 24.789062 44.792969 L 34.257812 43.292969 A 0.50005 0.50005 0 0 0 34.582031 43.097656 L 41.246094 34.09375 L 49.458984 32.792969 L 43.369141 40.982422 A 0.50005 0.50005 0 0 0 43.847656 41.773438 L 53.378906 40.263672 A 0.50005 0.50005 0 0 0 53.701172 40.068359 L 60.400391 31.058594 L 68.519531 29.771484 L 62.439453 37.960938 A 0.50005 0.50005 0 0 0 62.917969 38.753906 L 72.449219 37.244141 A 0.50005 0.50005 0 0 0 72.771484 37.048828 L 78.896484 28.8125 z M 58.986328 31.283203 L 53.019531 39.308594 L 44.902344 40.595703 L 50.871094 32.568359 L 58.986328 31.283203 z M 13.310547 31.482422 L 20.150391 34.482422 L 13.681641 36.324219 L 13.171875 34.585938 C 12.863354 33.519614 12.944782 32.443867 13.310547 31.482422 z M 39.837891 34.316406 L 33.900391 42.337891 L 25.841797 43.615234 L 31.808594 35.589844 L 39.837891 34.316406 z M 20.865234 37.324219 L 15.199219 44.945312 L 14.144531 38.388672 L 20.865234 37.324219 z M 62.505859 40.849609 A 0.50005 0.50005 0 0 0 62.421875 40.857422 L 19.224609 47.703125 A 0.50005 0.50005 0 0 0 18.808594 48.277344 L 24.285156 82.296875 C 24.399219 82.996985 24.833237 83.414163 25.091797 83.599609 C 25.348513 83.784715 25.885055 84.067847 26.587891 83.955078 L 81.205078 75.298828 A 0.50005 0.50005 0 0 0 81.232422 75.294922 L 81.253906 75.292969 A 0.50005 0.50005 0 0 0 81.273438 75.289062 A 0.50005 0.50005 0 0 0 81.369141 75.263672 C 82.404267 75.045433 83.112371 74.050823 82.943359 72.998047 L 80.113281 55.419922 A 0.50005 0.50005 0 0 0 79.630859 54.992188 A 0.50005 0.50005 0 0 0 79.125 55.580078 L 81.955078 73.158203 C 82.042592 73.703317 81.672933 74.210924 81.117188 74.300781 A 0.50005 0.50005 0 0 0 81.074219 74.306641 L 26.429688 82.966797 C 26.060523 83.026027 25.801019 82.877958 25.677734 82.789062 A 0.50005 0.50005 0 0 0 25.675781 82.789062 C 25.554269 82.70195 25.333173 82.50338 25.273438 82.136719 L 19.875 48.613281 L 62.578125 41.845703 A 0.50005 0.50005 0 0 0 62.505859 40.849609 z M 77.859375 43.992188 A 0.50005 0.50005 0 0 0 77.353516 44.580078 L 77.515625 45.580078 A 0.50005 0.50005 0 1 0 78.501953 45.419922 L 78.341797 44.419922 A 0.50005 0.50005 0 0 0 77.859375 43.992188 z M 78.341797 46.992188 A 0.50005 0.50005 0 0 0 77.837891 47.580078 L 78.320312 50.580078 A 0.50058747 0.50058747 0 1 0 79.308594 50.419922 L 78.824219 47.419922 A 0.50005 0.50005 0 0 0 78.341797 46.992188 z"/></svg>