<?xml version="1.0" encoding="UTF-8" standalone="no"?>
<svg
   xmlns:dc="http://purl.org/dc/elements/1.1/"
   xmlns:cc="http://creativecommons.org/ns#"
   xmlns:rdf="http://www.w3.org/1999/02/22-rdf-syntax-ns#"
   xmlns:svg="http://www.w3.org/2000/svg"
   xmlns="http://www.w3.org/2000/svg"
   xmlns:sodipodi="http://sodipodi.sourceforge.net/DTD/sodipodi-0.dtd"
   xmlns:inkscape="http://www.inkscape.org/namespaces/inkscape"
   inkscape:version="1.0 (6e3e5246a0, 2020-05-07)"
   sodipodi:docname="matplotlib.svg"
   xml:space="preserve"
   viewBox="0 0 512 512"
   version="1.1"
   style="enable-background:new 0 0 512 512;"
   id="Layer_1"><metadata
     id="metadata37"><rdf:RDF><cc:Work
         rdf:about=""><dc:format>image/svg+xml</dc:format><dc:type
           rdf:resource="http://purl.org/dc/dcmitype/StillImage" /><dc:title></dc:title></cc:Work></rdf:RDF></metadata><defs
     id="defs35" /><sodipodi:namedview
     inkscape:current-layer="Layer_1"
     inkscape:window-maximized="1"
     inkscape:window-y="27"
     inkscape:window-x="0"
     inkscape:cy="319.05192"
     inkscape:cx="348.73587"
     inkscape:zoom="1.1449053"
     showgrid="false"
     id="namedview33"
     inkscape:window-height="977"
     inkscape:window-width="1920"
     inkscape:pageshadow="2"
     inkscape:pageopacity="0"
     guidetolerance="10"
     gridtolerance="10"
     objecttolerance="10"
     borderopacity="1"
     bordercolor="#666666"
     pagecolor="#ffffff" /><style
     id="style2"
     type="text/css">
	.st0{fill:#2E4356;}
	.st1{fill:#CCE134;}
	.st2{fill:#EA6159;}
	.st3{fill:#F4908C;}
	.st4{fill:#FBD502;}
	.st5{fill:#13283B;}
</style><g
     style="fill:#000000"
     id="XMLID_1_"><g
       style="fill:#000000"
       id="XMLID_5_"><rect
         style="fill:#000000"
         y="435.3"
         x="6"
         width="38"
         id="XMLID_6_"
         height="10.4"
         class="st0" /><rect
         style="fill:#000000"
         y="391.5"
         x="6"
         width="38"
         id="XMLID_936_"
         height="10.4"
         class="st0" /><rect
         style="fill:#000000"
         y="347.6"
         x="6"
         width="38"
         id="XMLID_937_"
         height="10.4"
         class="st0" /><rect
         style="fill:#000000"
         y="303.8"
         x="6"
         width="38"
         id="XMLID_938_"
         height="10.4"
         class="st0" /><rect
         style="fill:#000000"
         y="259.9"
         x="6"
         width="38"
         id="XMLID_939_"
         height="10.4"
         class="st0" /><rect
         style="fill:#000000"
         y="216"
         x="6"
         width="38"
         id="XMLID_940_"
         height="10.4"
         class="st0" /><rect
         style="fill:#000000"
         y="172.2"
         x="6"
         width="38"
         id="XMLID_941_"
         height="10.4"
         class="st0" /><rect
         style="fill:#000000"
         y="128.3"
         x="6"
         width="38"
         id="XMLID_942_"
         height="10.4"
         class="st0" /><rect
         style="fill:#000000"
         y="84.5"
         x="6"
         width="38"
         id="XMLID_943_"
         height="10.4"
         class="st0" /><rect
         style="fill:#000000"
         y="40.6"
         x="6"
         width="38"
         id="XMLID_944_"
         height="10.4"
         class="st0" /><rect
         style="fill:#000000"
         y="466.7"
         x="75.8"
         width="10.4"
         id="XMLID_945_"
         height="38"
         class="st0" /><rect
         style="fill:#000000"
         y="466.7"
         x="119.7"
         width="10.4"
         id="XMLID_946_"
         height="38"
         class="st0" /><rect
         style="fill:#000000"
         y="466.7"
         x="163.5"
         width="10.4"
         id="XMLID_947_"
         height="38"
         class="st0" /><rect
         style="fill:#000000"
         y="466.7"
         x="207.4"
         width="10.4"
         id="XMLID_948_"
         height="38"
         class="st0" /><rect
         style="fill:#000000"
         y="466.7"
         x="251.2"
         width="10.4"
         id="XMLID_949_"
         height="38"
         class="st0" /><rect
         style="fill:#000000"
         y="466.7"
         x="295.1"
         width="10.4"
         id="XMLID_950_"
         height="38"
         class="st0" /><rect
         style="fill:#000000"
         y="466.7"
         x="338.9"
         width="10.4"
         id="XMLID_951_"
         height="38"
         class="st0" /><rect
         style="fill:#000000"
         y="466.7"
         x="382.8"
         width="10.4"
         id="XMLID_952_"
         height="38"
         class="st0" /><rect
         style="fill:#000000"
         y="466.7"
         x="426.7"
         width="10.4"
         id="XMLID_953_"
         height="38"
         class="st0" /><rect
         style="fill:#000000"
         y="466.7"
         x="470.5"
         width="10.4"
         id="XMLID_954_"
         height="38"
         class="st0" /></g><polygon
       style="fill:#000000"
       points="214.6,465.3 260.5,224.4 306.5,465.3  "
       id="XMLID_700_"
       class="st1" /><polygon
       style="fill:#000000"
       points="169.5,465.3 205,286.4 240.6,465.3  "
       id="XMLID_665_"
       class="st2" /><polygon
       style="fill:#000000"
       points="358.1,465.3 418.2,148.3 478.3,465.3  "
       id="XMLID_702_"
       class="st3" /><polygon
       style="fill:#000000"
       points="269,465.3 330.8,51.1 392.6,465.3  "
       id="XMLID_666_"
       class="st0" /><polygon
       style="fill:#000000"
       points="67.7,465.3 127.8,148.3 187.9,465.3  "
       id="XMLID_7_"
       class="st4" /><polygon
       style="fill:#000000"
       points="27.8,485.6 27.8,7.4 53.4,7.4 53.4,459.9 506,459.9 506,485.6  "
       id="XMLID_1457_"
       class="st5" /></g><path
     id="path39"
     d="M 52.423158,484.96261 28.185346,484.73044 V 246.29659 7.8627394 H 40.413432 52.641517 V 234.08232 460.3019 h 226.656293 226.6563 v 12.22809 12.22808 l -12.44644,0.0548 c -47.51694,0.20917 -421.62159,0.33618 -441.084512,0.14975 z"
     style="fill:#000000;stroke-width:0.87481" /><path
     id="path41"
     d="m 6.3494793,440.64962 v -4.80389 H 16.830695 27.311911 v 4.80389 4.80389 H 16.830695 6.3494793 Z"
     style="fill:#000000;stroke-width:0.87481" /><path
     id="path43"
     d="m 69.540711,457.89995 c 0.23191,-0.84068 13.327162,-69.8175 29.100562,-153.28182 15.773397,-83.46433 28.883277,-151.75601 29.133057,-151.75928 0.24978,-0.003 13.35006,68.0892 29.11174,151.3166 15.76168,83.22741 28.86521,152.20691 29.11896,153.28779 l 0.46137,1.96523 h -58.67367 c -55.458027,0 -58.650563,-0.0838 -58.252019,-1.52852 z"
     style="fill:#000000;stroke-width:0.87481" /><path
     id="path45"
     d="M 6.3494793,396.97789 V 392.174 H 16.830695 27.311911 v 4.80389 4.80389 H 16.830695 6.3494793 Z"
     style="fill:#000000;stroke-width:0.87481" /><path
     id="path47"
     d="m 6.3494793,352.43272 v -4.80389 H 16.830695 27.311911 v 4.80389 4.80389 H 16.830695 6.3494793 Z"
     style="fill:#000000;stroke-width:0.87481" /><path
     id="path49"
     d="m 6.3494793,308.76098 v -4.80389 H 16.830695 27.311911 v 4.80389 4.80389 H 16.830695 6.3494793 Z"
     style="fill:#000000;stroke-width:0.87481" /><path
     id="path51"
     d="m 11.371729,270.11989 c 3.002431,-0.17056 7.915501,-0.17056 10.917933,0 3.002432,0.17055 0.545897,0.3101 -5.458967,0.3101 -6.004863,0 -8.461398,-0.13955 -5.458966,-0.3101 z"
     style="fill:#000000;stroke-width:0.87481" /><path
     id="path53"
     d="m 6.3494793,221.41752 v -4.80389 H 16.830695 27.311911 v 4.80389 4.80389 H 16.830695 6.3494793 Z"
     style="fill:#000000;stroke-width:0.87481" /><path
     id="path55"
     d="m 6.3494793,265.08925 v -4.80389 H 16.830695 27.311911 v 4.80389 4.80389 H 16.830695 6.3494793 Z"
     style="fill:#000000;stroke-width:0.87481" /><path
     id="path57"
     d="m 6.3494793,177.74578 v -4.80389 H 16.830695 27.311911 v 4.80389 4.80389 H 16.830695 6.3494793 Z"
     style="fill:#000000;stroke-width:0.87481" /><path
     id="path59"
     d="m 6.3494793,133.20061 v -4.80389 H 16.830695 27.311911 v 4.80389 4.8039 H 16.830695 6.3494793 Z"
     style="fill:#000000;stroke-width:0.87481" /><path
     id="path61"
     d="m 6.3494793,89.528881 v -4.80389 H 16.830695 27.311911 v 4.80389 4.803891 H 16.830695 6.3494793 Z"
     style="fill:#000000;stroke-width:0.87481" /><path
     id="path63"
     d="m 11.371729,50.887785 c 3.002431,-0.170557 7.915501,-0.170557 10.917933,0 3.002432,0.170556 0.545897,0.310102 -5.458967,0.310102 -6.004863,0 -8.461398,-0.139546 -5.458966,-0.310102 z"
     style="fill:#000000;stroke-width:0.87481" /><path
     id="path65"
     d="m 87.797263,458.77443 c -9.727879,-0.14056 -17.687053,-0.53468 -17.687053,-0.87582 0,-0.75407 36.78214,-194.49252 54.7222,-288.2321 1.31012,-6.84554 2.63123,-12.44644 2.93581,-12.44644 0.30458,0 0.98949,2.26001 1.52202,5.02225 0.53252,2.76223 12.98535,68.10607 27.67293,145.20851 14.68759,77.10245 27.24054,142.83932 27.89544,146.08195 l 1.19072,5.89569 -40.28251,-0.19924 c -22.15538,-0.10958 -48.241679,-0.31423 -57.969557,-0.4548 z"
     style="fill:#000000;stroke-width:0.87481" /><path
     id="path67"
     d="m 187.15046,459.1932 c 0,-0.12939 -1.75936,-9.45144 -3.90969,-20.71566 l -3.90968,-20.4804 12.83685,-64.66258 12.83685,-64.66257 16.81611,84.28644 c 9.24886,46.35755 16.82648,84.77776 16.83915,85.37824 0.0179,0.84929 -5.70021,1.0918 -25.74327,1.0918 -14.17148,0 -25.76632,-0.10587 -25.76632,-0.23527 z"
     style="fill:#000000;stroke-width:0.87481" /><path
     id="path69"
     d="m 233.97603,429.95004 c -3.17897,-16.21313 -5.79149,-30.26451 -5.8056,-31.22528 -0.0372,-2.535 31.82917,-169.88232 32.34854,-169.87933 0.24019,0.001 5.85026,28.4211 12.46682,63.15494 l 12.0301,63.15243 -7.45472,50.17261 c -4.10009,27.59492 -7.65416,51.05695 -7.89792,52.13783 -0.43816,1.94281 -0.6112,1.96523 -15.17525,1.96523 h -14.73203 z"
     style="fill:#000000;stroke-width:0.87481" /><path
     id="path71"
     d="m 270.44127,457.89995 c 0.23773,-0.84068 13.92255,-92.125 30.41071,-202.85406 16.48817,-110.72905 30.10964,-200.343452 30.26994,-199.143106 0.43092,3.226679 59.44165,399.257956 59.83461,401.560456 l 0.3354,1.96523 h -60.64145 c -57.33613,0 -60.61789,-0.0833 -60.20921,-1.52852 z"
     style="fill:#000000;stroke-width:0.87481" /><path
     id="path73"
     d="m 392.32676,459.21011 c -0.0445,-0.1201 -3.31864,-21.7266 -7.27593,-48.01446 l -7.19509,-47.7961 20.13712,-106.21267 c 11.07542,-58.41698 20.23665,-105.88824 20.3583,-105.49169 0.56747,1.84978 57.90617,305.26689 57.90617,306.41993 0,1.1506 -5.19528,1.31335 -41.92486,1.31335 -23.05868,0 -41.96125,-0.0983 -42.00571,-0.21836 z"
     style="fill:#000000;stroke-width:0.87481" /><path
     id="path75"
     d=""
     style="fill:#000000;stroke-width:0.87481" /><path
     id="path77"
     d=""
     style="fill:#000000;stroke-width:0.87481" /><path
     id="path79"
     d=""
     style="fill:#000000;stroke-width:0.87481" /><path
     id="path81"
     d=""
     style="fill:#000000;stroke-width:0.87481" /><path
     id="path83"
     d="m 196.69863,458.81015 -9.23067,-0.311 -3.80609,-20.20615 -3.80609,-20.20615 8.96296,-45.49187 c 4.92964,-25.02053 10.59966,-53.65499 12.60005,-63.63215 l 3.63708,-18.14027 16.53281,83.41917 c 9.09305,45.88055 16.3644,83.57064 16.15854,83.75576 -0.60881,0.5475 -31.03833,1.14994 -41.04859,0.81266 z"
     style="fill:#000000;stroke-width:0.87481" /><path
     id="path85"
     d="m 87.797263,458.77443 c -9.727879,-0.14056 -17.687053,-0.56104 -17.687053,-0.9344 0,-0.70961 41.14727,-217.59439 51.27513,-270.26811 3.20975,-16.69352 6.08358,-30.35185 6.38628,-30.35185 0.30271,0 0.98317,2.26001 1.51213,5.02225 18.51267,96.67336 33.30558,174.2237 43.44348,227.74809 7.00616,36.98996 12.90868,67.74578 13.11672,68.34626 0.36834,1.06322 -41.74786,1.25126 -98.046687,0.43776 z"
     style="fill:#000000;stroke-width:0.87481" /><path
     id="path87"
     d="m 87.797263,458.77443 c -9.727879,-0.14056 -17.687053,-0.56565 -17.687053,-0.94463 0,-0.77517 24.201422,-128.47607 42.86389,-226.17501 6.7649,-35.41462 12.73135,-66.65024 13.25876,-69.41247 0.52741,-2.76224 1.20513,-5.02225 1.50604,-5.02225 0.68976,0 -1.17446,-9.57714 30.17799,155.03465 14.63941,76.86225 26.96164,141.41999 27.38274,143.46165 l 0.76562,3.7121 -40.29047,-0.19924 c -22.15975,-0.10958 -48.249639,-0.31423 -57.977517,-0.4548 z"
     style="fill:#000000;stroke-width:0.87481" /><path
     id="path89"
     d="m 76.224253,494.80257 v -9.17106 h 4.803891 4.803891 v 9.17106 9.17106 h -4.803891 -4.803891 z"
     style="fill:#000000;stroke-width:0.87481" /><path
     id="path91"
     d="m 119.89599,494.80257 v -9.17106 h 4.80389 4.80389 v 9.17106 9.17106 h -4.80389 -4.80389 z"
     style="fill:#000000;stroke-width:0.87481" /><path
     id="path93"
     d="m 163.56772,494.80257 v -9.17106 h 4.80389 4.80389 v 9.17106 9.17106 h -4.80389 -4.80389 z"
     style="fill:#000000;stroke-width:0.87481" /><path
     id="path95"
     d="m 208.11289,494.80257 v -9.17106 h 4.80389 4.80389 v 9.17106 9.17106 h -4.80389 -4.80389 z"
     style="fill:#000000;stroke-width:0.87481" /><path
     id="path97"
     d="m 251.78462,494.80257 v -9.17106 h 4.80389 4.80389 v 9.17106 9.17106 h -4.80389 -4.80389 z"
     style="fill:#000000;stroke-width:0.87481" /><path
     id="path99"
     d="m 295.45636,494.80257 v -9.17106 h 4.80389 4.80389 v 9.17106 9.17106 h -4.80389 -4.80389 z"
     style="fill:#000000;stroke-width:0.87481" /><path
     id="path101"
     d="m 339.12809,494.80257 v -9.17106 h 4.80389 4.80389 v 9.17106 9.17106 h -4.80389 -4.80389 z"
     style="fill:#000000;stroke-width:0.87481" /><path
     id="path103"
     d="m 382.79982,494.80257 v -9.17106 h 4.80389 4.80389 v 9.17106 9.17106 h -4.80389 -4.80389 z"
     style="fill:#000000;stroke-width:0.87481" /><path
     id="path105"
     d="m 427.34499,494.80257 v -9.17106 h 4.80389 4.80389 v 9.17106 9.17106 h -4.80389 -4.80389 z"
     style="fill:#000000;stroke-width:0.87481" /><path
     id="path107"
     d="m 471.01673,494.80257 v -9.17106 h 4.80389 4.80389 v 9.17106 9.17106 h -4.80389 -4.80389 z"
     style="fill:#000000;stroke-width:0.87481" /></svg>
