<?xml version="1.0" encoding="UTF-8" standalone="no"?>
<svg
   xmlns:dc="http://purl.org/dc/elements/1.1/"
   xmlns:cc="http://creativecommons.org/ns#"
   xmlns:rdf="http://www.w3.org/1999/02/22-rdf-syntax-ns#"
   xmlns:svg="http://www.w3.org/2000/svg"
   xmlns="http://www.w3.org/2000/svg"
   xmlns:sodipodi="http://sodipodi.sourceforge.net/DTD/sodipodi-0.dtd"
   xmlns:inkscape="http://www.inkscape.org/namespaces/inkscape"
   inkscape:version="1.0 (6e3e5246a0, 2020-05-07)"
   sodipodi:docname="photo.svg"
   xml:space="preserve"
   style="enable-background:new 0 0 485.001 485.001;"
   viewBox="0 0 485.001 485.001"
   y="0px"
   x="0px"
   id="Capa_1"
   version="1.1"><metadata
   id="metadata41"><rdf:RDF><cc:Work
       rdf:about=""><dc:format>image/svg+xml</dc:format><dc:type
         rdf:resource="http://purl.org/dc/dcmitype/StillImage" /><dc:title></dc:title></cc:Work></rdf:RDF></metadata><defs
   id="defs39" /><sodipodi:namedview
   inkscape:current-layer="Capa_1"
   inkscape:window-maximized="1"
   inkscape:window-y="27"
   inkscape:window-x="0"
   inkscape:cy="257.11574"
   inkscape:cx="375.33364"
   inkscape:zoom="0.8546374"
   showgrid="false"
   id="namedview37"
   inkscape:window-height="977"
   inkscape:window-width="1920"
   inkscape:pageshadow="2"
   inkscape:pageopacity="0"
   guidetolerance="10"
   gridtolerance="10"
   objecttolerance="10"
   borderopacity="1"
   bordercolor="#666666"
   pagecolor="#ffffff" />
<g
   id="g4">
	<path
   id="path2"
   d="M250,72.501c-56.363,0-70,15-70,15l-14.531,36l-4,4H140c0-5.523-13.432-10-30-10s-30,4.477-30,10   c-28.902,0.237-48.902,10.09-57.969,24.469C12.965,166.349,0,214.957,0,272.501c0,69.036,13.431,125,30,125h141.719   c-34.279-24.489-56.656-64.628-56.656-110c0-74.616,60.55-135.062,134.938-135.062c74.387,0,134.906,60.447,134.906,135.062   c0,45.372-22.356,85.511-56.625,110h126.719c16.569,0,30-55.964,30-125c0-57.544-12.935-106.071-22.031-120.531   c-9.097-14.46-29.62-24.469-58.969-24.469h-65.469l-4-4l-14.531-36C320.001,87.502,306.364,72.502,250,72.501L250,72.501z    M382,152.501h55l5,5v20l-5,5h-55l-5-5v-20L382,152.501z M250,162.501c-20.495,0-39.838,4.945-56.906,13.688   c-0.033,0.017-0.061,0.046-0.094,0.062c-0.865,0.444-1.741,0.88-2.594,1.344c-0.033,0.018-0.061,0.045-0.094,0.062   c-3.507,1.909-6.894,3.962-10.188,6.188c-0.043,0.029-0.082,0.065-0.125,0.094c-0.788,0.534-1.6,1.074-2.375,1.625   c-0.031,0.022-0.063,0.041-0.094,0.062c-1.29,0.916-2.56,1.881-3.812,2.844c-0.299,0.231-0.609,0.454-0.906,0.688   c-0.035,0.027-0.059,0.067-0.094,0.094c-0.752,0.592-1.481,1.173-2.219,1.781c-0.367,0.302-0.731,0.601-1.094,0.906   c-0.404,0.342-0.819,0.685-1.219,1.031c-0.033,0.029-0.061,0.065-0.094,0.094c-0.722,0.627-1.449,1.263-2.156,1.906   c-0.028,0.025-0.066,0.037-0.094,0.062c-0.712,0.648-1.397,1.336-2.094,2c-0.027,0.025-0.067,0.037-0.094,0.062   c-2.139,2.038-4.197,4.16-6.188,6.344c-0.03,0.033-0.064,0.061-0.094,0.094c-20.175,22.182-32.469,51.635-32.469,83.969   c0,31.297,11.528,59.892,30.562,81.812c0.655,0.756,1.327,1.51,2,2.25c2.489,2.732,5.092,5.342,7.812,7.844   c0.405,0.374,0.809,0.756,1.219,1.125c0.247,0.221,0.501,0.437,0.75,0.656c0.667,0.589,1.352,1.175,2.031,1.75   c0.252,0.213,0.496,0.445,0.75,0.656c0.153,0.127,0.315,0.248,0.469,0.375c0.184,0.151,0.378,0.287,0.562,0.438   c0.641,0.523,1.254,1.052,1.906,1.562c0.681,0.532,1.37,1.044,2.062,1.562c0.155,0.116,0.313,0.228,0.469,0.344   c0.396,0.293,0.788,0.586,1.188,0.875c1.073,0.778,2.183,1.537,3.281,2.281c0.055,0.037,0.102,0.088,0.156,0.125   c1.094,0.739,2.194,1.451,3.312,2.156c1.174,0.74,2.363,1.455,3.562,2.156c1.199,0.701,2.401,1.369,3.625,2.031   c17.663,9.552,37.886,15,59.375,15s41.712-5.448,59.375-15c1.224-0.662,2.426-1.33,3.625-2.031c1.2-0.702,2.389-1.416,3.562-2.156   c1.118-0.705,2.218-1.417,3.312-2.156c0.055-0.037,0.101-0.088,0.156-0.125c1.098-0.745,2.208-1.503,3.281-2.281   c0.4-0.29,0.791-0.581,1.188-0.875c0.156-0.116,0.313-0.227,0.469-0.344c0.688-0.517,1.386-1.032,2.062-1.562   c0.648-0.507,1.268-1.044,1.906-1.562c0.596-0.486,1.195-0.972,1.781-1.469c0.678-0.573,1.366-1.163,2.031-1.75   c0.248-0.219,0.504-0.435,0.75-0.656c0.414-0.371,0.81-0.749,1.219-1.125c1.25-1.15,2.454-2.332,3.656-3.531   c0.704-0.703,1.407-1.406,2.094-2.125c0.692-0.724,1.388-1.447,2.062-2.188c0.673-0.74,1.345-1.494,2-2.25   c1.311-1.51,2.574-3.052,3.812-4.625c1.238-1.572,2.431-3.181,3.594-4.812c4.659-6.54,8.687-13.546,12.031-20.938   c0.416-0.92,0.824-1.85,1.219-2.781c6.334-14.961,9.875-31.387,9.875-48.656c0-32.333-12.269-61.786-32.438-83.969   c-0.03-0.033-0.064-0.061-0.094-0.094c-1.341-1.472-2.746-2.906-4.156-4.312c-1.856-1.856-3.75-3.67-5.719-5.406   c-1.001-0.88-2.034-1.745-3.062-2.594c-0.034-0.028-0.06-0.066-0.094-0.094c-1.312-1.079-2.644-2.13-4-3.156   c-0.207-0.157-0.417-0.313-0.625-0.469c-0.03-0.022-0.064-0.04-0.094-0.062c-0.82-0.614-1.633-1.219-2.469-1.812   c-4.037-2.867-8.253-5.495-12.625-7.875c-0.919-0.498-1.849-0.993-2.781-1.469c-12.07-13.742-31.412-18.687-51.907-18.687   L250,162.501L250,162.501z M250,207.501c44.183,0,80,35.817,80,80s-35.817,80-80,80s-80-35.817-80-80S205.817,207.502,250,207.501   L250,207.501z"
   style="fill:#222222;" />
</g>
<g
   id="g6">
</g>
<g
   id="g8">
</g>
<g
   id="g10">
</g>
<g
   id="g12">
</g>
<g
   id="g14">
</g>
<g
   id="g16">
</g>
<g
   id="g18">
</g>
<g
   id="g20">
</g>
<g
   id="g22">
</g>
<g
   id="g24">
</g>
<g
   id="g26">
</g>
<g
   id="g28">
</g>
<g
   id="g30">
</g>
<g
   id="g32">
</g>
<g
   id="g34">
</g>
<path
   id="path43"
   d="M 24.339835,393.86349 C 1.4599232,374.61131 -6.7652054,259.59533 9.7492153,189.83575 17.136574,158.63035 22.621115,148.26639 36.491672,139.30142 c 8.480604,-5.48128 18.403962,-8.66274 32.631066,-10.46162 8.383779,-1.06005 11.34843,-1.93702 13.407072,-3.9659 4.293459,-4.23139 12.256908,-5.83005 28.94925,-5.81156 13.13681,0.0146 15.97093,0.36543 20.78286,2.57301 3.06445,1.4059 5.88511,3.37283 6.26814,4.37098 0.56323,1.46777 2.8753,1.81481 12.09074,1.81481 10.00209,0 11.65966,-0.29318 13.56577,-2.3994 1.19428,-1.31967 5.40718,-10.40247 9.36199,-20.184 6.69906,-16.568969 7.5028,-17.963224 11.75844,-20.397942 13.76516,-7.875242 33.44656,-11.296883 64.82735,-11.270332 31.40231,0.02657 49.04261,2.993815 63.41146,10.66634 5.35303,2.858356 5.64428,3.30677 11.49662,17.701074 3.30246,8.12264 7.14944,17.13786 8.54888,20.03383 l 2.54442,5.26539 42.12313,0.71441 c 46.14751,0.78266 50.18396,1.29813 64.80442,8.27583 15.94745,7.61102 23.59828,19.40371 30.59985,47.16548 7.13755,28.30086 10.47833,57.0508 10.48459,90.22774 0.0105,56.22478 -9.08784,104.96959 -22.15756,118.70872 l -4.38809,4.61284 -63.65838,-0.013 -63.65839,-0.013 4.0953,-3.08286 c 13.00642,-9.79096 28.19676,-28.72625 36.78528,-45.85414 9.58542,-19.11598 13.95524,-38.25538 13.93299,-61.02521 -0.0232,-23.78727 -4.47384,-41.65926 -15.7383,-63.19936 -17.24137,-32.96926 -48.59265,-57.88073 -84.89914,-67.46013 -16.8551,-4.44719 -43.88585,-5.1518 -61.23908,-1.59632 -52.97484,10.85396 -93.98152,51.03419 -105.42759,103.30283 -10.80776,49.35378 6.77505,101.50689 44.93635,133.28749 l 6.78874,5.65365 H 98.758621 27.997395 Z M 439.88881,180.87874 c 1.78743,-1.61759 2.13979,-3.77006 2.13979,-13.07134 0,-16.42108 2.12629,-15.41443 -32.55913,-15.41443 -34.8903,0 -32.96574,-0.84299 -32.96574,14.43949 0,9.23853 0.31975,10.90691 2.54413,13.27466 2.52229,2.68483 2.78541,2.7081 30.62265,2.7081 24.48534,0 28.35234,-0.2478 30.2183,-1.93648 z"
   style="fill:#000000;stroke-width:1.17193" /><path
   id="path45"
   d="m 231.87955,410.44819 c -13.7173,-2.13089 -25.23777,-5.91228 -38.10498,-12.50728 -25.60725,-13.12483 -44.16216,-32.38774 -56.61533,-58.77562 -21.35816,-45.2573 -12.2167,-100.15972 22.79814,-136.92256 21.01354,-22.06257 47.76866,-35.14461 78.4761,-38.37127 8.98242,-0.94385 12.93543,-1.87406 14.7015,-3.45951 2.97251,-2.66852 8.77477,-2.78393 21.17574,-0.4212 10.89143,2.07512 20.9457,6.77372 29.2949,13.69021 3.34551,2.77143 9.73935,7.284 14.20853,10.02795 24.09198,14.79175 44.26347,42.42573 52.30236,71.6517 4.4887,16.31902 5.22155,39.33136 1.78236,55.96797 -5.06413,24.49706 -17.02393,46.7391 -34.445,64.0585 -11.24593,11.1803 -20.55626,17.68238 -35.10719,24.51791 -22.79185,10.70682 -46.54043,14.26006 -70.46713,10.5432 z m 36.97619,-44.5802 c 4.18306,-0.9825 12.03385,-3.92655 17.44619,-6.54234 19.09994,-9.23098 35.99762,-30.00649 41.73371,-51.31113 2.7707,-10.29073 2.76989,-30.67445 -10e-4,-40.93305 -3.82235,-14.14665 -11.26992,-26.77241 -21.96352,-37.2337 -15.48784,-15.15138 -33.69116,-22.46072 -55.9366,-22.46072 -35.83567,0 -65.61268,21.52093 -76.90094,55.57912 -2.71749,8.19903 -3.10252,11.24841 -3.10252,24.57183 0,13.32342 0.38503,16.3728 3.10252,24.57182 8.83229,26.64821 29.54978,46.25699 56.27544,53.26383 10.43556,2.73596 28.81969,2.96693 39.34689,0.49434 z"
   style="fill:#000000;stroke-width:1.17193" /></svg>
