<?xml version="1.0" encoding="UTF-8" standalone="no"?>
<svg
   xmlns:dc="http://purl.org/dc/elements/1.1/"
   xmlns:cc="http://creativecommons.org/ns#"
   xmlns:rdf="http://www.w3.org/1999/02/22-rdf-syntax-ns#"
   xmlns:svg="http://www.w3.org/2000/svg"
   xmlns="http://www.w3.org/2000/svg"
   xmlns:sodipodi="http://sodipodi.sourceforge.net/DTD/sodipodi-0.dtd"
   xmlns:inkscape="http://www.inkscape.org/namespaces/inkscape"
   inkscape:version="1.0 (6e3e5246a0, 2020-05-07)"
   sodipodi:docname="sh.svg"
   id="svg8"
   version="1.1"
   viewBox="0 0 12 12"
   focusable="false"
   height="12"
   width="12">
  <metadata
     id="metadata14">
    <rdf:RDF>
      <cc:Work
         rdf:about="">
        <dc:format>image/svg+xml</dc:format>
        <dc:type
           rdf:resource="http://purl.org/dc/dcmitype/StillImage" />
        <dc:title></dc:title>
      </cc:Work>
    </rdf:RDF>
  </metadata>
  <defs
     id="defs12" />
  <sodipodi:namedview
     inkscape:current-layer="svg8"
     inkscape:window-maximized="1"
     inkscape:window-y="27"
     inkscape:window-x="0"
     inkscape:cy="4.5131003"
     inkscape:cx="13.729801"
     inkscape:zoom="34.541667"
     showgrid="false"
     id="namedview10"
     inkscape:window-height="977"
     inkscape:window-width="1920"
     inkscape:pageshadow="2"
     inkscape:pageopacity="0"
     guidetolerance="10"
     gridtolerance="10"
     objecttolerance="10"
     borderopacity="1"
     bordercolor="#666666"
     pagecolor="#ffffff" />
  <g
     id="g6"
     stroke="currentColor"
     fill="none">
    <rect
       id="rect2"
       ry=".5"
       rx=".5"
       y="1.5"
       x=".5"
       height="9"
       width="11" />
    <path
       id="path4"
       d="M5.5 8.5h4m-7-5l2.1 2.1a.5.5 0 010 .7L2.5 8.5"
       stroke-linecap="round" />
  </g>
  <path
     id="path16"
     d="M 0.70434692,10.936141 C 0.42547005,10.838162 0.22814467,10.656461 0.09702281,10.376906 L 0.02171918,10.216357 V 6.0185285 c 0,-4.832773 -0.02801938,-4.3739201 0.28652928,-4.6922799 C 0.4395117,1.1933949 0.52799767,1.1316366 0.65247951,1.0859942 L 0.82003112,1.0245599 H 6.0000063 11.179981 l 0.167552,0.061434 c 0.124482,0.045642 0.212968,0.1074007 0.344231,0.2402544 0.314549,0.3183598 0.286529,-0.1404931 0.286529,4.6922799 v 4.1978288 l -0.07702,0.164299 c -0.103,0.219718 -0.284403,0.410423 -0.483379,0.508166 l -0.163364,0.08025 -5.2110979,0.006 c -4.6473599,0.0054 -5.22494344,0.0012 -5.33908518,-0.03895 z M 11.00845,5.989578 V 1.9799278 H 6.0000063 0.99156236 V 5.989578 9.9992282 H 6.0000063 11.00845 Z"
     style="fill:#000000;stroke-width:0.0289961" />
  <path
     id="path18"
     d="M 2.3007826,8.9378746 C 2.0902185,8.8340893 1.9761285,8.5921061 2.0348834,8.3739071 2.0592584,8.2833854 2.1359542,8.1823202 2.3479534,7.9613618 2.5023858,7.8004029 2.9077742,7.3755852 3.2488165,7.0173223 3.5898588,6.6590593 3.9605414,6.2714344 4.0725557,6.1559339 L 4.276218,5.9459324 3.1719382,4.8386841 C 1.96626,3.6297647 1.9567018,3.6175842 2.0327995,3.3870059 2.1429559,3.0532287 2.478025,2.9233905 2.7591151,3.105561 2.8299044,3.1514385 3.3716754,3.6758052 3.9630506,4.2708203 5.1638723,5.479033 5.1878625,5.509936 5.2121164,5.8797998 5.2272957,6.1112832 5.1759175,6.3181012 5.0613472,6.4867066 4.9261545,6.6856605 2.7776673,8.9057508 2.681395,8.9459762 2.5555915,8.9985402 2.4179179,8.9956098 2.3007826,8.9378746 Z"
     style="fill:#000000;stroke-width:0.0289961" />
  <path
     id="path20"
     d="M 5.3191302,8.9459066 C 5.1144117,8.856021 4.986846,8.6131912 5.0282904,8.3922737 5.0546104,8.2519761 5.2305152,8.0739582 5.3834487,8.0328491 c 0.086412,-0.023228 0.7157657,-0.030393 2.1712907,-0.024721 1.9489061,0.0076 2.0550704,0.010699 2.1607575,0.063176 0.1556966,0.077308 0.2619946,0.2472348 0.2613916,0.4178578 -5.935e-4,0.1676145 -0.065765,0.295932 -0.2037771,0.4012115 l -0.1063284,0.081111 -2.1301315,0.0064 c -1.7163577,0.00515 -2.1471067,-0.00106 -2.2175213,-0.031974 z"
     style="fill:#000000;stroke-width:0.0289961" />
</svg>
